# xmcd CD database file
#
# Track frame offsets:
#	150
#	18232
#	38253
#	61564
#	85824
#	101965
#	115690
#	137650
#	154786
#	173052
#
# Disc length: 2580 seconds
#
# Revision: 0
# Processed by: cddbd v1.5.1PL2 Copyright (c) Steve Scherf et al.
# Submitted via: CDex 1.60beta1
#
DISCID=6b0a120a
DTITLE=Square Record - 7090 Audio Machine (disc2)
DYEAR=2005
DGENRE=Retro
TTITLE0=EarBreaker/Breeze
TTITLE1=Nauts/Miss AM
TTITLE2=Satoru Kosaki/tropic of cancer
TTITLE3=Musikadelik/ReConnexion
TTITLE4=MIAO/Never love with all heart
TTITLE5=be/stay tuned
TTITLE6=makou/Stoic, Precious, Proudful (Jazz Breaks Mix)
TTITLE7=M2U/BlueRain
TTITLE8=Electronic Boutique/Romantic Spaceships
TTITLE9=TEMARI/Orbit
EXTD=YEAR: 2005
EXTT0=
EXTT1=
EXTT2=
EXTT3=
EXTT4=
EXTT5=
EXTT6=
EXTT7=
EXTT8=
EXTT9=
PLAYORDER=
